<?xml version="1.0" encoding="UTF-8" standalone="no"?>
<svg xmlns="http://www.w3.org/2000/svg" xmlns:xlink="http://www.w3.org/1999/xlink" width="61px" height="61px" viewBox="0 0 61 61" version="1.1">
    <!-- Generator: Sketch 40.1 (33804) - http://www.bohemiancoding.com/sketch -->
    <title>6 -Whatsapp- (social, media, communication, retro)</title>
    <desc>Created with Sketch.</desc>
    <defs/>
    <g id="Page-1" stroke="none" stroke-width="1" fill="none" fill-rule="evenodd">
        <g id="Icons" transform="translate(-719.000000, -378.000000)">
            <g id="6--Whatsapp--(social,-media,-communication,-retro)" transform="translate(721.000000, 379.000000)">
                <path d="M0,58.0001 L4.044,43.4571 C1.443,39.0391 0,34.0131 0,28.8491 C0,12.9501 13.009,0.0001 28.908,0.0001 C44.807,0.0001 58,12.9501 58,28.8491 C58,44.7481 44.807,58.0001 28.908,58.0001 C23.954,58.0001 19.103,56.4151 14.812,54.0071 L0,58.0001 Z" id="Fill-65" fill="#EDEDED"/>
                <path d="M15.569,48.7614 L16.452,49.3004 C20.193,51.5844 24.501,53.0004 28.908,53.0004 C42.11,53.0004 53,42.0514 53,28.8494 C53,15.6474 42.11,5.0004 28.908,5.0004 C15.706,5.0004 5,15.6474 5,28.8494 C5,33.4494 6.273,37.9164 8.746,41.7674 L9.34,42.6934 L7.012,50.9644 L15.569,48.7614 Z" id="Fill-66" fill="#00CD27"/>
                <path d="M21.1965,15.429 L19.3255,15.327 C18.7375,15.295 18.1615,15.491 17.7175,15.877 C16.8105,16.665 15.3595,18.188 14.9145,20.172 C14.2505,23.131 15.2765,26.754 17.9335,30.377 C20.5905,34 25.5425,39.797 34.2985,42.273 C37.1195,43.071 39.3395,42.533 41.0515,41.437 C42.4075,40.57 43.3425,39.177 43.6795,37.603 L43.9785,36.208 C44.0735,35.764 43.8485,35.314 43.4365,35.125 L37.1135,32.21 C36.7025,32.021 36.2155,32.14 35.9395,32.498 L33.4575,35.716 C33.2695,35.959 32.9485,36.056 32.6585,35.954 C30.9585,35.356 25.2645,32.972 22.1395,26.953 C22.0045,26.692 22.0385,26.375 22.2305,26.152 L24.6025,23.408 C24.8455,23.128 24.9065,22.734 24.7605,22.393 L22.0355,16.016 C21.8895,15.677 21.5645,15.449 21.1965,15.429" id="Fill-67" fill="#FEFEFE"/>
                <path d="M15.569,48.7614 L16.452,49.3004 C20.193,51.5844 24.501,53.0004 28.908,53.0004 C42.11,53.0004 53,42.0514 53,28.8494 C53,15.6474 42.11,5.0004 28.908,5.0004 C15.706,5.0004 5,15.6474 5,28.8494 C5,33.4494 6.273,37.9164 8.746,41.7674 L9.34,42.6934 L7.012,50.9644 L15.569,48.7614 L15.569,48.7614 Z M0,58.0004 L4.044,43.4574 C1.443,39.0394 0,34.0124 0,28.8494 C0,12.9504 13.009,0.0004 28.908,0.0004 C44.807,0.0004 58,12.9504 58,28.8494 C58,44.7484 44.807,58.0004 28.908,58.0004 C23.954,58.0004 19.103,56.4154 14.812,54.0074 L0,58.0004 L0,58.0004 Z" id="Stroke-162" stroke="#000000" stroke-width="2"/>
                <path d="M21.1965,15.429 L19.3255,15.327 C18.7375,15.295 18.1615,15.491 17.7175,15.877 C16.8105,16.665 15.3595,18.188 14.9145,20.172 C14.2505,23.131 15.2765,26.754 17.9335,30.377 C20.5905,34 25.5425,39.797 34.2985,42.273 C37.1195,43.071 39.3395,42.533 41.0515,41.437 C42.4075,40.57 43.3425,39.177 43.6795,37.603 L43.9785,36.208 C44.0735,35.764 43.8485,35.314 43.4365,35.125 L37.1135,32.21 C36.7025,32.021 36.2155,32.14 35.9395,32.498 L33.4575,35.716 C33.2695,35.959 32.9485,36.056 32.6585,35.954 C30.9585,35.356 25.2645,32.972 22.1395,26.953 C22.0045,26.692 22.0385,26.375 22.2305,26.152 L24.6025,23.408 C24.8455,23.128 24.9065,22.734 24.7605,22.393 L22.0355,16.016 C21.8895,15.677 21.5645,15.449 21.1965,15.429 L21.1965,15.429 Z" id="Stroke-163" stroke="#000000" stroke-width="2"/>
            </g>
        </g>
    </g>
</svg>
